<svg width="1000" height="1000" viewBox="0 0 1000 1000" xmlns="http://www.w3.org/2000/svg"><defs/><path fill="#19ce96" transform="matrix(0.5845242624669161 0 0 0.5845242624669161 31.32870471459695 25.61029909639096)" d="M 485.51760344484 755.11949595325 C 425.21760344484 690.41949595325 324.01760344484 685.31949595325 257.61760344484 744.51949595325 C 220.01760344484 778.01949595325 201.51760344484 825.11949595325 203.11760344484 871.81949595325 C 206.61760344484 829.41949595325 225.71760344484 788.21949595325 259.91760344484 757.61949595325 C 324.81760344484 699.81949595325 421.21760344484 700.31949595325 485.51760344484 755.11949595325 Z"/><path fill="#19ce96" transform="matrix(0.5845242624669161 0 0 0.5845242624669161 31.32870471459695 25.61029909639096)" d="M 546.31760344484 769.61949595325 C 505.41760344484 795.51949595325 486.31760344484 799.61949595325 490.81760344484 809.01949595325 L 439.91760344484 846.61949595325 C 438.21760344484 845.71949595325 436.21760344484 845.81949595325 434.61760344484 847.01949595325 L 372.91760344484 892.61949595325 C 371.21760344484 891.71949595325 369.31760344484 891.21949595325 367.21760344484 891.21949595325 C 365.91760344484 891.21949595325 364.61760344484 891.41949595325 363.41760344484 891.81949595325 L 341.61760344484 870.01949595325 C 340.21760344484 868.61949595325 338.21760344484 868.21949595325 336.41760344484 868.71949595325 L 319.61760344484 851.91949595325 C 327.11760344484 842.11949595325 309.51760344484 838.11949595325 277.21760344484 811.51949595325 C 271.31760344484 806.61949595325 270.81760344484 807.11949595325 275.71760344484 813.01949595325 C 302.31760344484 845.31949595325 306.31760344484 862.91949595325 316.11760344484 855.41949595325 L 332.91760344484 872.21949595325 C 332.41760344484 874.01949595325 332.81760344484 876.01949595325 334.21760344484 877.41949595325 L 356.01760344484 899.21949595325 C 355.61760344484 900.41949595325 355.41760344484 901.71949595325 355.41760344484 903.01949595325 C 355.41760344484 903.81949595325 355.51760344484 904.61949595325 355.61760344484 905.41949595325 L 350.81760344484 908.91949595325 C 348.61760344484 910.61949595325 348.11760344484 913.71949595325 349.71760344484 915.91949595325 C 351.41760344484 918.11949595325 354.51760344484 918.61949595325 356.71760344484 917.01949595325 L 361.51760344484 913.51949595325 C 363.21760344484 914.41949595325 365.11760344484 914.91949595325 367.21760344484 914.91949595325 C 368.51760344484 914.91949595325 369.81760344484 914.71949595325 371.01760344484 914.31949595325 L 375.11760344484 918.41949595325 C 377.21760344484 920.51949595325 380.51760344484 920.51949595325 382.61760344484 918.41949595325 C 384.71760344484 916.31949595325 384.71760344484 913.01949595325 382.61760344484 910.91949595325 L 378.51760344484 906.81949595325 C 378.91760344484 905.61949595325 379.11760344484 904.31949595325 379.11760344484 903.01949595325 C 379.11760344484 902.21949595325 379.01760344484 901.41949595325 378.91760344484 900.61949595325 L 440.61760344484 855.01949595325 C 442.21760344484 853.81949595325 442.91760344484 851.91949595325 442.51760344484 850.01949595325 L 493.31760344484 812.41949595325 C 501.01760344484 819.51949595325 510.51760344484 802.41949595325 547.31760344484 770.91949595325 C 554.21760344484 765.21949595325 553.91760344484 764.81949595325 546.31760344484 769.61949595325 Z M 367.21760344484 909.31949595325 C 363.81760344484 909.31949595325 361.01760344484 906.51949595325 361.01760344484 903.11949595325 C 361.01760344484 899.71949595325 363.81760344484 896.91949595325 367.21760344484 896.91949595325 C 370.61760344484 896.91949595325 373.41760344484 899.71949595325 373.41760344484 903.11949595325 C 373.41760344484 906.51949595325 370.61760344484 909.31949595325 367.21760344484 909.31949595325 Z"/><path id="text" fill="#19ce96" transform="matrix(0.8159430793815312 0 0 0.8159430793815312 303.6979289611964 55.595460690665846)" d="M 190.11053597877 515.32339853405 L 172.54253597877 582.71539853405 L 152.67053597877 582.71539853405 L 141.91853597877 538.36339853405 L 130.78253597877 582.71539853405 L 110.91053597877 582.71539853405 L 93.82253597877 515.32339853405 L 111.39053597877 515.32339853405 L 121.08653597877 564.37939853405 L 133.08653597877 515.32339853405 L 151.13453597877 515.32339853405 L 162.65453597877 564.37939853405 L 172.44653597877 515.32339853405 L 190.11053597877 515.32339853405 Z M 198.22253597877 541.33939853405 C 200.30253597877 537.17939853405 203.13453597877 533.97939853405 206.71853597877 531.73939853405 C 210.30253597877 529.49939853405 214.30253597877 528.37939853405 218.71853597877 528.37939853405 C 222.49453597877 528.37939853405 225.80653597877 529.14739853405 228.65453597877 530.68339853405 C 231.50253597877 532.21939853405 233.69453597877 534.23539853405 235.23053597877 536.73139853405 L 235.23053597877 529.14739853405 L 251.64653597877 529.14739853405 L 251.64653597877 582.71539853405 L 235.23053597877 582.71539853405 L 235.23053597877 575.13139853405 C 233.63053597877 577.62739853405 231.40653597877 579.64339853405 228.55853597877 581.17939853405 C 225.71053597877 582.71539853405 222.39853597877 583.48339853405 218.62253597877 583.48339853405 C 214.27053597877 583.48339853405 210.30253597877 582.34739853405 206.71853597877 580.07539853405 C 203.13453597877 577.80339853405 200.30253597877 574.57139853405 198.22253597877 570.37939853405 C 196.14253597877 566.18739853405 195.10253597877 561.33939853405 195.10253597877 555.83539853405 C 195.10253597877 550.33139853405 196.14253597877 545.49939853405 198.22253597877 541.33939853405 Z M 231.82253597877 546.23539853405 C 229.55053597877 543.86739853405 226.78253597877 542.68339853405 223.51853597877 542.68339853405 C 220.25453597877 542.68339853405 217.48653597877 543.85139853405 215.21453597877 546.18739853405 C 212.94253597877 548.52339853405 211.80653597877 551.73939853405 211.80653597877 555.83539853405 C 211.80653597877 559.93139853405 212.94253597877 563.17939853405 215.21453597877 565.57939853405 C 217.48653597877 567.97939853405 220.25453597877 569.17939853405 223.51853597877 569.17939853405 C 226.78253597877 569.17939853405 229.55053597877 567.99539853405 231.82253597877 565.62739853405 C 234.09453597877 563.25939853405 235.23053597877 560.02739853405 235.23053597877 555.93139853405 C 235.23053597877 551.83539853405 234.09453597877 548.60339853405 231.82253597877 546.23539853405 Z M 293.40653597877 568.79539853405 L 293.40653597877 582.71539853405 L 285.05453597877 582.71539853405 C 279.10253597877 582.71539853405 274.46253597877 581.25939853405 271.13453597877 578.34739853405 C 267.80653597877 575.43539853405 266.14253597877 570.68339853405 266.14253597877 564.09139853405 L 266.14253597877 542.77939853405 L 259.61453597877 542.77939853405 L 259.61453597877 529.14739853405 L 266.14253597877 529.14739853405 L 266.14253597877 516.09139853405 L 282.55853597877 516.09139853405 L 282.55853597877 529.14739853405 L 293.31053597877 529.14739853405 L 293.31053597877 542.77939853405 L 282.55853597877 542.77939853405 L 282.55853597877 564.28339853405 C 282.55853597877 565.88339853405 282.94253597877 567.03539853405 283.71053597877 567.73939853405 C 284.47853597877 568.44339853405 285.75853597877 568.79539853405 287.55053597877 568.79539853405 L 293.40653597877 568.79539853405 Z M 302.67053597877 541.33939853405 C 304.94253597877 537.17939853405 308.11053597877 533.97939853405 312.17453597877 531.73939853405 C 316.23853597877 529.49939853405 320.89453597877 528.37939853405 326.14253597877 528.37939853405 C 332.86253597877 528.37939853405 338.47853597877 530.13939853405 342.99053597877 533.65939853405 C 347.50253597877 537.17939853405 350.46253597877 542.13939853405 351.87053597877 548.53939853405 L 334.39853597877 548.53939853405 C 332.92653597877 544.44339853405 330.07853597877 542.39539853405 325.85453597877 542.39539853405 C 322.84653597877 542.39539853405 320.44653597877 543.56339853405 318.65453597877 545.89939853405 C 316.86253597877 548.23539853405 315.96653597877 551.57939853405 315.96653597877 555.93139853405 C 315.96653597877 560.28339853405 316.86253597877 563.62739853405 318.65453597877 565.96339853405 C 320.44653597877 568.29939853405 322.84653597877 569.46739853405 325.85453597877 569.46739853405 C 330.07853597877 569.46739853405 332.92653597877 567.41939853405 334.39853597877 563.32339853405 L 351.87053597877 563.32339853405 C 350.46253597877 569.59539853405 347.48653597877 574.52339853405 342.94253597877 578.10739853405 C 338.39853597877 581.69139853405 332.79853597877 583.48339853405 326.14253597877 583.48339853405 C 320.89453597877 583.48339853405 316.23853597877 582.36339853405 312.17453597877 580.12339853405 C 308.11053597877 577.88339853405 304.94253597877 574.68339853405 302.67053597877 570.52339853405 C 300.39853597877 566.36339853405 299.26253597877 561.49939853405 299.26253597877 555.93139853405 C 299.26253597877 550.36339853405 300.39853597877 545.49939853405 302.67053597877 541.33939853405 Z M 408.31853597877 534.66739853405 C 412.03053597877 538.73139853405 413.88653597877 544.31539853405 413.88653597877 551.41939853405 L 413.88653597877 582.71539853405 L 397.56653597877 582.71539853405 L 397.56653597877 553.62739853405 C 397.56653597877 550.04339853405 396.63853597877 547.25939853405 394.78253597877 545.27539853405 C 392.92653597877 543.29139853405 390.43053597877 542.29939853405 387.29453597877 542.29939853405 C 384.15853597877 542.29939853405 381.66253597877 543.29139853405 379.80653597877 545.27539853405 C 377.95053597877 547.25939853405 377.02253597877 550.04339853405 377.02253597877 553.62739853405 L 377.02253597877 582.71539853405 L 360.60653597877 582.71539853405 L 360.60653597877 511.67539853405 L 377.02253597877 511.67539853405 L 377.02253597877 536.34739853405 C 378.68653597877 533.97939853405 380.95853597877 532.09139853405 383.83853597877 530.68339853405 C 386.71853597877 529.27539853405 389.95053597877 528.57139853405 393.53453597877 528.57139853405 C 399.67853597877 528.57139853405 404.60653597877 530.60339853405 408.31853597877 534.66739853405 Z M 488.57453597877 515.32339853405 L 464.67053597877 582.71539853405 L 444.12653597877 582.71539853405 L 420.22253597877 515.32339853405 L 437.69453597877 515.32339853405 L 454.39853597877 566.20339853405 L 471.19853597877 515.32339853405 L 488.57453597877 515.32339853405 Z M 496.59053597877 521.03539853405 C 494.76653597877 519.33939853405 493.85453597877 517.24339853405 493.85453597877 514.74739853405 C 493.85453597877 512.18739853405 494.76653597877 510.05939853405 496.59053597877 508.36339853405 C 498.41453597877 506.66739853405 500.76653597877 505.81939853405 503.64653597877 505.81939853405 C 506.46253597877 505.81939853405 508.78253597877 506.66739853405 510.60653597877 508.36339853405 C 512.43053597877 510.05939853405 513.34253597877 512.18739853405 513.34253597877 514.74739853405 C 513.34253597877 517.24339853405 512.43053597877 519.33939853405 510.60653597877 521.03539853405 C 508.78253597877 522.73139853405 506.46253597877 523.57939853405 503.64653597877 523.57939853405 C 500.76653597877 523.57939853405 498.41453597877 522.73139853405 496.59053597877 521.03539853405 Z M 511.80653597877 529.14739853405 L 511.80653597877 582.71539853405 L 495.39053597877 582.71539853405 L 495.39053597877 529.14739853405 L 511.80653597877 529.14739853405 Z M 533.02253597877 581.08339853405 C 529.37453597877 579.48339853405 526.49453597877 577.29139853405 524.38253597877 574.50739853405 C 522.27053597877 571.72339853405 521.08653597877 568.60339853405 520.83053597877 565.14739853405 L 537.05453597877 565.14739853405 C 537.24653597877 567.00339853405 538.11053597877 568.50739853405 539.64653597877 569.65939853405 C 541.18253597877 570.81139853405 543.07053597877 571.38739853405 545.31053597877 571.38739853405 C 547.35853597877 571.38739853405 548.94253597877 570.98739853405 550.06253597877 570.18739853405 C 551.18253597877 569.38739853405 551.74253597877 568.34739853405 551.74253597877 567.06739853405 C 551.74253597877 565.53139853405 550.94253597877 564.39539853405 549.34253597877 563.65939853405 C 547.74253597877 562.92339853405 545.15053597877 562.10739853405 541.56653597877 561.21139853405 C 537.72653597877 560.31539853405 534.52653597877 559.37139853405 531.96653597877 558.37939853405 C 529.40653597877 557.38739853405 527.19853597877 555.81939853405 525.34253597877 553.67539853405 C 523.48653597877 551.53139853405 522.55853597877 548.63539853405 522.55853597877 544.98739853405 C 522.55853597877 541.91539853405 523.40653597877 539.11539853405 525.10253597877 536.58739853405 C 526.79853597877 534.05939853405 529.29453597877 532.05939853405 532.59053597877 530.58739853405 C 535.88653597877 529.11539853405 539.80653597877 528.37939853405 544.35053597877 528.37939853405 C 551.07053597877 528.37939853405 556.36653597877 530.04339853405 560.23853597877 533.37139853405 C 564.11053597877 536.69939853405 566.33453597877 541.11539853405 566.91053597877 546.61939853405 L 551.74253597877 546.61939853405 C 551.48653597877 544.76339853405 550.67053597877 543.29139853405 549.29453597877 542.20339853405 C 547.91853597877 541.11539853405 546.11053597877 540.57139853405 543.87053597877 540.57139853405 C 541.95053597877 540.57139853405 540.47853597877 540.93939853405 539.45453597877 541.67539853405 C 538.43053597877 542.41139853405 537.91853597877 543.41939853405 537.91853597877 544.69939853405 C 537.91853597877 546.23539853405 538.73453597877 547.38739853405 540.36653597877 548.15539853405 C 541.99853597877 548.92339853405 544.54253597877 549.69139853405 547.99853597877 550.45939853405 C 551.96653597877 551.48339853405 555.19853597877 552.49139853405 557.69453597877 553.48339853405 C 560.19053597877 554.47539853405 562.38253597877 556.07539853405 564.27053597877 558.28339853405 C 566.15853597877 560.49139853405 567.13453597877 563.45139853405 567.19853597877 567.16339853405 C 567.19853597877 570.29939853405 566.31853597877 573.09939853405 564.55853597877 575.56339853405 C 562.79853597877 578.02739853405 560.27053597877 579.96339853405 556.97453597877 581.37139853405 C 553.67853597877 582.77939853405 549.85453597877 583.48339853405 545.50253597877 583.48339853405 C 540.83053597877 583.48339853405 536.67053597877 582.68339853405 533.02253597877 581.08339853405 Z M 607.13453597877 568.79539853405 L 607.13453597877 582.71539853405 L 598.78253597877 582.71539853405 C 592.83053597877 582.71539853405 588.19053597877 581.25939853405 584.86253597877 578.34739853405 C 581.53453597877 575.43539853405 579.87053597877 570.68339853405 579.87053597877 564.09139853405 L 579.87053597877 542.77939853405 L 573.34253597877 542.77939853405 L 573.34253597877 529.14739853405 L 579.87053597877 529.14739853405 L 579.87053597877 516.09139853405 L 596.28653597877 516.09139853405 L 596.28653597877 529.14739853405 L 607.03853597877 529.14739853405 L 607.03853597877 542.77939853405 L 596.28653597877 542.77939853405 L 596.28653597877 564.28339853405 C 596.28653597877 565.88339853405 596.67053597877 567.03539853405 597.43853597877 567.73939853405 C 598.20653597877 568.44339853405 599.48653597877 568.79539853405 601.27853597877 568.79539853405 L 607.13453597877 568.79539853405 Z M 616.11053597877 541.33939853405 C 618.19053597877 537.17939853405 621.02253597877 533.97939853405 624.60653597877 531.73939853405 C 628.19053597877 529.49939853405 632.19053597877 528.37939853405 636.60653597877 528.37939853405 C 640.38253597877 528.37939853405 643.69453597877 529.14739853405 646.54253597877 530.68339853405 C 649.39053597877 532.21939853405 651.58253597877 534.23539853405 653.11853597877 536.73139853405 L 653.11853597877 529.14739853405 L 669.53453597877 529.14739853405 L 669.53453597877 582.71539853405 L 653.11853597877 582.71539853405 L 653.11853597877 575.13139853405 C 651.51853597877 577.62739853405 649.29453597877 579.64339853405 646.44653597877 581.17939853405 C 643.59853597877 582.71539853405 640.28653597877 583.48339853405 636.51053597877 583.48339853405 C 632.15853597877 583.48339853405 628.19053597877 582.34739853405 624.60653597877 580.07539853405 C 621.02253597877 577.80339853405 618.19053597877 574.57139853405 616.11053597877 570.37939853405 C 614.03053597877 566.18739853405 612.99053597877 561.33939853405 612.99053597877 555.83539853405 C 612.99053597877 550.33139853405 614.03053597877 545.49939853405 616.11053597877 541.33939853405 Z M 649.71053597877 546.23539853405 C 647.43853597877 543.86739853405 644.67053597877 542.68339853405 641.40653597877 542.68339853405 C 638.14253597877 542.68339853405 635.37453597877 543.85139853405 633.10253597877 546.18739853405 C 630.83053597877 548.52339853405 629.69453597877 551.73939853405 629.69453597877 555.83539853405 C 629.69453597877 559.93139853405 630.83053597877 563.17939853405 633.10253597877 565.57939853405 C 635.37453597877 567.97939853405 638.14253597877 569.17939853405 641.40653597877 569.17939853405 C 644.67053597877 569.17939853405 647.43853597877 567.99539853405 649.71053597877 565.62739853405 C 651.98253597877 563.25939853405 653.11853597877 560.02739853405 653.11853597877 555.93139853405 C 653.11853597877 551.83539853405 651.98253597877 548.60339853405 649.71053597877 546.23539853405 Z"/></svg>